<?xml version="1.0" encoding="UTF-8" standalone="no"?>
<!-- Created with Inkscape (http://www.inkscape.org/) -->

<svg
   version="1.1"
   id="svg1"
   width="7in"
   height="7in"
   viewBox="0 0 672 672"
   sodipodi:docname="nibbler-futurama-vector-silhouette.svg"
   inkscape:version="1.3.2 (1:1.3.2+202311252150+091e20ef0f)"
   xmlns:inkscape="http://www.inkscape.org/namespaces/inkscape"
   xmlns:sodipodi="http://sodipodi.sourceforge.net/DTD/sodipodi-0.dtd"
   xmlns="http://www.w3.org/2000/svg"
   xmlns:svg="http://www.w3.org/2000/svg">
  <defs
     id="defs1" />
  <sodipodi:namedview
     id="namedview1"
     pagecolor="#000000"
     bordercolor="#000000"
     borderopacity="1"
     inkscape:showpageshadow="2"
     inkscape:pageopacity="0.0"
     inkscape:pagecheckerboard="0"
     inkscape:deskcolor="#000000"
     inkscape:zoom="1.30623"
     inkscape:cx="176.84482"
     inkscape:cy="428.71471"
     inkscape:window-width="1632"
     inkscape:window-height="1013"
     inkscape:window-x="1728"
     inkscape:window-y="1050"
     inkscape:window-maximized="1"
     inkscape:current-layer="g1"
     inkscape:document-units="in">
    <inkscape:page
       x="0"
       y="0"
       inkscape:label="1"
       id="page1"
       width="672"
       height="672"
       margin="0"
       bleed="0" />
  </sodipodi:namedview>
  <g
     id="g1"
     inkscape:groupmode="layer"
     inkscape:label="1"
     transform="translate(31.508697,2.4973147)">
    <circle
       style="fill:#ffffff;fill-opacity:1;stroke:#ffffff;stroke-width:2.54419;stroke-opacity:1"
       id="path60"
       cx="304.4913"
       cy="333.50269"
       r="334.72791" />
    <path
       id="path2"
       d="m 345.92399,341.11601 c 0,0 2.59733,19.90933 -7.50267,27.416"
       style="fill:none;stroke:#100f0d;stroke-width:4.15601;stroke-linecap:round;stroke-linejoin:round;stroke-miterlimit:10;stroke-dasharray:none;stroke-opacity:1" />
    <path
       id="path3"
       d="m 377.10132,351.21601 c 0,0 0.86534,7.508 5.76934,33.48266 4.904,25.976 18.47333,58.00534 27.132,73.01467 8.65866,15.01066 12.98,17.03333 20.19733,19.34 7.21867,2.30666 29.43867,12.69733 31.17067,23.088 1.732,10.38933 -2.888,15.008 -12.12,12.41066 0.864,2.88934 1.73066,7.21734 1.73066,7.21734 l 10.748,4.90533 -7.28533,48.7704 c 0,0 -20.78667,-24.82493 -49.64267,-33.76773 -25.976,-19.91467 -229.73066,-50.50267 -229.73066,-50.50267 l 46.756,-145.46133 c 0,0 73.892,31.164 155.27466,7.50267"
       style="fill:#000000;fill-opacity:1;fill-rule:nonzero;stroke:none;stroke-width:0.133333" />
    <path
       id="path4"
       d="m 239.71733,491.48134 c 0,0 4.76266,-85.71733 72.29733,-94.376 56.712,-7.79333 84.85066,61.47467 84.85066,61.47467 0,0 -50.65066,45.45599 -157.14799,32.90133"
       style="fill:#000000;fill-opacity:1;fill-rule:nonzero;stroke:none;stroke-width:0.133333" />
    <path
       id="path5"
       d="m 239.71733,491.48134 c 0,0 4.76266,-85.71733 72.29733,-94.376 56.712,-7.79333 84.85066,61.47467 84.85066,61.47467 0,0 -50.65066,45.45599 -157.14799,32.90133 z"
       style="fill:#000000;stroke:none;stroke-width:4.15601;stroke-linecap:round;stroke-linejoin:round;stroke-miterlimit:10;stroke-dasharray:none;stroke-opacity:1" />
    <path
       id="path7"
       d="m 201.18799,469.836 c 0,0 58.53867,27.70667 119.532,10.38934 60.99333,-17.316 64.45733,-24.244 71.384,-42.85867 12.48,9.992 30.224,38.05067 23.81067,70.99867 -6.412,32.9496 -23.59467,68.83346 -97.51467,80.09066 -73.92,11.25467 -114.616,-31.60253 -124.13866,-52.3828 -7.79333,-22.07986 -5.196,-57.57986 6.92666,-66.2372"
       style="fill:#000000;fill-opacity:1;fill-rule:nonzero;stroke:none;stroke-width:0.133333" />
    <path
       id="path8"
       d="m 201.18799,469.836 c 0,0 58.53867,27.70667 119.532,10.38934 60.99333,-17.316 64.45733,-24.244 71.384,-42.85867 12.48,9.992 30.224,38.05067 23.81067,70.99867 -6.412,32.9496 -23.59467,68.83346 -97.51467,80.09066 -73.92,11.25467 -114.616,-31.60253 -124.13866,-52.3828 -7.79333,-22.07986 -5.196,-57.57986 6.92666,-66.2372 z"
       style="fill:#000000;stroke:none;stroke-width:4.15601;stroke-linecap:round;stroke-linejoin:round;stroke-miterlimit:10;stroke-dasharray:none;stroke-opacity:1" />
    <path
       id="path9"
       d="m 288.63733,555.1212 c 0,0 11.796,-10.41053 14.91466,-36.79853 3.11867,-26.388 8.55734,-43.292 17.168,-48.05467 8.61067,-4.76133 50.956,-32.60399 68.31333,-5.91066 17.35734,26.69066 24.66134,53.63333 24.66134,53.63333"
       style="fill:#000000;fill-opacity:1;fill-rule:nonzero;stroke:none;stroke-width:4.15601;stroke-linecap:round;stroke-linejoin:round;stroke-miterlimit:10;stroke-dasharray:none;stroke-opacity:1" />
    <path
       id="path10"
       d="m 196.42533,338.01201 c 0,0 8.29466,-2.164 16.23466,-1.116"
       style="fill:none;stroke:#100f0d;stroke-width:4.15601;stroke-linecap:round;stroke-linejoin:round;stroke-miterlimit:10;stroke-dasharray:none;stroke-opacity:1" />
    <path
       id="path12"
       d="m 250.10799,621.7904 c 0,0 -13.56933,-38.53066 -17.608,-53.24893 -4.03866,-14.72027 2.88934,-26.8964 10.68,-28.6 7.79334,-1.70413 18.184,-4.3016 23.37734,7.81973 5.19466,12.12147 12.55466,28.57187 12.55466,28.57187 l -29.004,45.45733"
       style="fill:#000000;fill-opacity:1;fill-rule:nonzero;stroke:none;stroke-width:0.133333" />
    <path
       id="path13"
       d="m 294.02133,555.1212 c 14.96933,-0.19066 26.74533,21.21187 26.69866,41.99213 -0.048,20.7812 -10.87066,62.34115 -41.608,61.47448 -30.736,-0.8651 -32.468,-34.18648 -32.03466,-51.72661 0.432,-17.54 12.93333,-51.30773 46.944,-51.74"
       style="fill:#000000;fill-opacity:1;fill-rule:nonzero;stroke:none;stroke-width:0.133333" />
    <path
       id="path14"
       d="m 294.02133,555.1212 c 14.96933,-0.19066 26.74533,21.21187 26.69866,41.99213 -0.048,20.7812 -10.87066,62.34115 -41.608,61.47448 -30.736,-0.8651 -32.468,-34.18648 -32.03466,-51.72661 0.432,-17.54 12.93333,-51.30773 46.944,-51.74 z"
       style="fill:#000000;stroke:#000000;stroke-width:4.15601;stroke-linecap:round;stroke-linejoin:round;stroke-miterlimit:10;stroke-dasharray:none;stroke-opacity:1" />
    <path
       id="path16"
       d="m 448.38399,549.78414 c 0.41333,-18.51507 22.944,-52.6748 46.75466,-51.80947 23.81067,0.86667 32.036,29.00533 26.408,57.14653 -5.628,28.13854 -14.71866,51.5176 -41.56,49.3536 -26.84133,-2.16667 -32.03599,-35.35213 -31.60266,-54.69066"
       style="fill:#000000;fill-opacity:1;fill-rule:nonzero;stroke:none;stroke-width:0.133333" />
    <path
       id="path17"
       d="m 448.38399,549.78414 c 0.41333,-18.51507 22.944,-52.6748 46.75466,-51.80947 23.81067,0.86667 32.036,29.00533 26.408,57.14653 -5.628,28.13854 -14.71866,51.5176 -41.56,49.3536 -26.84133,-2.16667 -32.03599,-35.35213 -31.60266,-54.69066 z"
       style="fill:none;stroke:#000000;stroke-width:4.15601;stroke-linecap:round;stroke-linejoin:round;stroke-miterlimit:10;stroke-dasharray:none;stroke-opacity:1" />
    <path
       id="path20"
       d="m 386.23332,328.00801 c 0,0 4.03734,18.18266 -13.85466,30.30266 -17.892,12.12267 -36.364,10.68134 -36.364,10.68134 0,0 -8.94267,4.62133 -17.6,2.024 -12.12267,3.46266 -27.99867,6.34533 -27.99867,6.34533 0,0 -19.96133,2.644 -42.472,-19.868 l 17.296,-21.62667 z"
       style="fill:#000000;stroke:none;stroke-width:4.15601;stroke-linecap:round;stroke-linejoin:round;stroke-miterlimit:10;stroke-dasharray:none;stroke-opacity:1" />
    <path
       id="path25"
       d="m 225.13333,166.15735 c 0,0 -67.53467,28.13999 -65.36933,92.64399 2.164,64.50534 41.99199,66.236 83.11999,73.164 41.12667,6.92533 193.51333,-80.52266 193.51333,-80.52266 l 10.38934,-64.93867 c 0,0 9.95866,-15.584 0,-24.676 -9.956,-9.092 -21.212,-8.22533 -26.84,-7.36 -9.09067,-5.628 -54.508,-27.70666 -114.48667,-12.55466 -9.328,-12.12134 -16.256,-15.58534 -30.108,-15.58534 -4.76266,-20.78 -5.196,-38.529329 11.25467,-63.205328 -10.38933,-8.66 -20.34667,-9.092 -20.34667,-9.092 0,0 -24.676,17.317333 -15.15066,75.761328 -9.52534,3.03067 -26.84134,13.42 -25.976,36.36534"
       style="fill:#000000;fill-opacity:1;fill-rule:nonzero;stroke:none;stroke-width:0.133333" />
    <path
       id="path26"
       d="m 324.52133,35.416016 c 0,18.411999 -14.92267,33.333332 -33.33334,33.333332 -18.41333,0 -33.336,-14.921333 -33.336,-33.333332 0,-18.413333 14.92267,-33.3359995 33.336,-33.3359995 18.41067,0 33.33334,14.9226665 33.33334,33.3359995"
       style="fill:#ffffff;fill-opacity:1;fill-rule:nonzero;stroke:none;stroke-width:0.133333" />
    <path
       id="path27"
       d="m 324.52133,35.416016 c 0,18.411999 -14.92267,33.333332 -33.33334,33.333332 -18.41333,0 -33.336,-14.921333 -33.336,-33.333332 0,-18.413333 14.92267,-33.3359995 33.336,-33.3359995 18.41067,0 33.33334,14.9226665 33.33334,33.3359995 z"
       style="fill:none;stroke:#100f0d;stroke-width:4.15601;stroke-linecap:round;stroke-linejoin:round;stroke-miterlimit:10;stroke-dasharray:none;stroke-opacity:1" />
    <path
       id="path28"
       d="m 309.55199,35.848016 c 0,3.268 -2.644,5.913333 -5.912,5.913333 -3.268,0 -5.912,-2.645333 -5.912,-5.913333 0,-3.266667 2.644,-5.912 5.912,-5.912 3.268,0 5.912,2.645333 5.912,5.912"
       style="fill:#100f0d;fill-opacity:1;fill-rule:nonzero;stroke:none;stroke-width:0.133333" />
    <path
       id="path29"
       d="m 326.86799,230.87868 c 0,23.072 -21.808,41.776 -48.70266,41.776 -26.89334,0 -48.70267,-18.704 -48.70267,-41.776 0,-23.07334 21.80933,-41.77733 48.70267,-41.77733 26.89466,0 48.70266,18.70399 48.70266,41.77733"
       style="fill:#ffffff;fill-opacity:1;fill-rule:nonzero;stroke:none;stroke-width:0.133333" />
    <path
       id="path30"
       d="m 326.86799,230.87868 c 0,23.072 -21.808,41.776 -48.70266,41.776 -26.89334,0 -48.70267,-18.704 -48.70267,-41.776 0,-23.07334 21.80933,-41.77733 48.70267,-41.77733 26.89466,0 48.70266,18.70399 48.70266,41.77733 z"
       style="fill:none;stroke:#000000;stroke-width:4.15601;stroke-linecap:round;stroke-linejoin:round;stroke-miterlimit:10;stroke-dasharray:none;stroke-opacity:1" />
    <path
       id="path31"
       d="m 465.83599,216.26668 c 0,23.43866 -18.988,42.42666 -42.42667,42.42666 -23.43733,0 -42.42533,-18.988 -42.42533,-42.42666 0,-23.43733 18.988,-42.42533 42.42533,-42.42533 23.43867,0 42.42667,18.988 42.42667,42.42533"
       style="fill:#ffffff;fill-opacity:1;fill-rule:nonzero;stroke:none;stroke-width:0.133333" />
    <path
       id="path32"
       d="m 465.83599,216.26668 c 0,23.43866 -18.988,42.42666 -42.42667,42.42666 -23.43733,0 -42.42533,-18.988 -42.42533,-42.42666 0,-23.43733 18.988,-42.42533 42.42533,-42.42533 23.43867,0 42.42667,18.988 42.42667,42.42533 z"
       style="fill:none;stroke:#000000;stroke-width:4.15601;stroke-linecap:round;stroke-linejoin:round;stroke-miterlimit:10;stroke-dasharray:none;stroke-opacity:1" />
    <path
       id="path33"
       d="m 307.38799,213.99468 c 0,3.828 -3.09866,6.92666 -6.92666,6.92666 -3.828,0 -6.928,-3.09866 -6.928,-6.92666 0,-3.828 3.1,-6.92667 6.928,-6.92667 3.828,0 6.92666,3.09867 6.92666,6.92667"
       style="fill:#100f0d;fill-opacity:1;fill-rule:nonzero;stroke:none;stroke-width:0.133333" />
    <path
       id="path34"
       d="m 447.87599,202.74534 c 0,3.82934 -3.09733,6.92667 -6.92667,6.92667 -3.828,0 -6.92533,-3.09733 -6.92533,-6.92667 0,-3.828 3.09733,-6.92666 6.92533,-6.92666 3.82934,0 6.92667,3.09866 6.92667,6.92666"
       style="fill:#100f0d;fill-opacity:1;fill-rule:nonzero;stroke:none;stroke-width:0.133333" />
    <path
       id="path35"
       d="m 345.69999,268.10934 c 0,0 -31.16933,-1.29866 -57.79333,7.576 -26.62533,8.87467 -60.60933,24.24267 -58.444,48.27067 2.164,24.02666 45.456,25.10933 62.12267,27.27333 16.66666,2.16533 67.31999,-3.24667 91.99599,-14.07067 24.676,-10.82266 48.70267,-16.66666 66.02,-52.16533 14.07067,-4.32933 27.48933,-6.49333 27.27333,-13.42133 -0.216,-6.92667 -31.81866,-15.152 -41.34399,-17.1 -19.69734,0.21733 -27.27334,0 -27.27334,0 0,0 1.732,-9.09067 -6.06133,-12.988 -7.792,-3.896 -22.29467,-5.84267 -43.07467,0 -20.78,5.84533 -24.676,12.55467 -13.42133,26.62533"
       style="fill:#000000;fill-opacity:1;fill-rule:nonzero;stroke:none;stroke-width:0.133333" />
    <path
       id="path36"
       d="m 345.69999,268.10934 c 0,0 -31.16933,-1.29866 -57.79333,7.576 -26.62533,8.87467 -60.60933,24.24267 -58.444,48.27067 2.164,24.02666 45.456,25.10933 62.12267,27.27333 16.66666,2.16533 67.31999,-3.24667 91.99599,-14.07067 24.676,-10.82266 48.70267,-16.66666 66.02,-52.16533 14.07067,-4.32933 27.48933,-6.49333 27.27333,-13.42133 -0.216,-6.92667 -31.81866,-15.152 -41.34399,-17.1 -19.69734,0.21733 -27.27334,0 -27.27334,0 0,0 1.732,-9.09067 -6.06133,-12.988 -7.792,-3.896 -22.29467,-5.84267 -43.07467,0 -20.78,5.84533 -24.676,12.55467 -13.42133,26.62533 z"
       style="fill:none;stroke:#000000;stroke-width:4.15601;stroke-linecap:round;stroke-linejoin:round;stroke-miterlimit:10;stroke-dasharray:none;stroke-opacity:1" />
    <path
       id="path37"
       d="m 348.08266,271.57201 -2.38267,-3.46267"
       style="fill:none;stroke:#000000;stroke-width:4.15601;stroke-linecap:round;stroke-linejoin:round;stroke-miterlimit:10;stroke-dasharray:none;stroke-opacity:1" />
    <path
       id="path38"
       d="m 400.89866,263.78001 c 0.648,0 6.276,-4.54533 7.35866,-9.308"
       style="fill:none;stroke:#000000;stroke-width:4.15601;stroke-linecap:round;stroke-linejoin:round;stroke-miterlimit:10;stroke-dasharray:none;stroke-opacity:1" />
    <path
       id="path39"
       d="m 398.08399,253.39068 c 0,3.70666 -7.94133,6.70933 -17.74933,6.70933 -9.808,0 -17.75067,-3.00267 -17.75067,-6.70933 0,-3.708 7.94267,-6.71067 17.75067,-6.71067 9.808,0 17.74933,3.00267 17.74933,6.71067"
       style="fill:#000000;fill-opacity:1;fill-rule:nonzero;stroke:none;stroke-width:0.133333" />
    <path
       id="path40"
       d="m 270.12266,304.40668 c 0,0 60.35067,9.08533 179.47866,-19.41334"
       style="fill:none;stroke:#000000;stroke-width:4.15601;stroke-linecap:round;stroke-linejoin:round;stroke-miterlimit:10;stroke-dasharray:none;stroke-opacity:1" />
    <path
       id="path41"
       d="m 265.39466,307.58001 c 0,0 5.19467,-1.72533 7.21733,-7.50267"
       style="fill:none;stroke:#000000;stroke-width:4.15601;stroke-linecap:round;stroke-linejoin:round;stroke-miterlimit:10;stroke-dasharray:none;stroke-opacity:1" />
    <path
       id="path42"
       d="m 300.46133,305.78001 c 0,0 2.172,23.15466 13.13466,27.77333 1.732,-14.14266 6.05467,-28.38266 6.05467,-28.38266 0,0 -10.112,0.664 -19.18933,0.60933"
       style="fill:#ffffff;fill-opacity:1;fill-rule:nonzero;stroke:none;stroke-width:0.133333" />
    <path
       id="path43"
       d="m 300.46133,305.78001 c 0,0 2.172,23.15466 13.13466,27.77333 1.732,-14.14266 6.05467,-28.38266 6.05467,-28.38266 0,0 -10.112,0.664 -19.18933,0.60933 z"
       style="fill:none;stroke:#000000;stroke-width:4.15601;stroke-linecap:round;stroke-linejoin:round;stroke-miterlimit:10;stroke-dasharray:none;stroke-opacity:1" />
    <path
       id="path44"
       d="m 451.21066,284.50534 c 0,0 -2.54267,17.588 -13.79867,28.26934 -0.86667,-12.12267 -5.89867,-23.64134 -5.89867,-23.64134 0,0 13.928,-2.96933 19.69734,-4.628"
       style="fill:#ffffff;fill-opacity:1;fill-rule:nonzero;stroke:none;stroke-width:0.133333" />
    <path
       id="path45"
       d="m 451.21066,284.50534 c 0,0 -2.54267,17.588 -13.79867,28.26934 -0.86667,-12.12267 -5.89867,-23.64134 -5.89867,-23.64134 0,0 13.928,-2.96933 19.69734,-4.628 z"
       style="fill:none;stroke:#000000;stroke-width:4.15601;stroke-linecap:round;stroke-linejoin:round;stroke-miterlimit:10;stroke-dasharray:none;stroke-opacity:1" />
    <path
       id="path46"
       d="m 400.24266,295.39068 c 0,0 7.38533,11.22133 9.46266,20.272 2.076,9.05066 -0.29733,28.56533 -17.03333,30.58933 -16.73467,2.02133 -19.90667,-1.23867 -22.796,-13.89467 -2.888,-12.656 -16.19333,-28.004 -16.75467,-30 13.86667,-1.71866 35.51867,-4.78266 47.12134,-6.96666"
       style="fill:#000000;fill-opacity:1;fill-rule:nonzero;stroke:none;stroke-width:0.133333" />
    <path
       id="path47"
       d="m 400.24266,295.39068 c 0,0 7.38533,11.22133 9.46266,20.272 2.076,9.05066 -0.29733,28.56533 -17.03333,30.58933 -16.73467,2.02133 -19.90667,-1.23867 -22.796,-13.89467 -2.888,-12.656 -16.19333,-28.004 -16.75467,-30 13.86667,-1.71866 35.51867,-4.78266 47.12134,-6.96666 z"
       style="fill:none;stroke:none;stroke-width:4.15601;stroke-linecap:round;stroke-linejoin:round;stroke-miterlimit:10;stroke-dasharray:none;stroke-opacity:1" />
    <path
       id="path48"
       d="m 385.46132,312.77468 c 0,0 -0.79733,-7.61067 -4.47733,-14.232"
       style="fill:none;stroke:#000000;stroke-width:4.15601;stroke-linecap:round;stroke-linejoin:round;stroke-miterlimit:10;stroke-dasharray:none;stroke-opacity:1" />
    <path
       id="path54"
       d="m 264.20266,347.80801 c 0,0 -29.28133,-39.74133 -67.37733,-30.65067 -38.09867,9.092 -49.78533,52.38267 -56.28,84.852 -19.4808,-0.432 -31.16987,8.65867 -41.560399,14.72 -10.3896,6.06 -20.779733,7.792 -28.139066,6.06 -7.359867,-1.73067 -16.018266,-1.73067 -32.902666,3.464 -16.883333,5.19467 -27.489559,8.224 -33.1176791,8.008 -5.62812388,-0.216 -1.5151066,8.00933 2.5968799,13.42133 4.1135332,5.41067 19.6978662,16.668 47.4051992,22.29467 27.706799,5.628 35.498932,17.75066 43.291732,25.54266 7.792669,7.792 27.740529,17.824 54.581999,9.59867"
       style="fill:#000000;fill-opacity:1;fill-rule:nonzero;stroke:#000000;stroke-width:4.15601;stroke-linecap:round;stroke-linejoin:round;stroke-miterlimit:10;stroke-dasharray:none;stroke-opacity:1" />
    <path
       id="path55"
       d="m 257.77199,363.66934 c 0,0 -26.71333,-32.94933 -54.128,-25.44133 -11.25599,11.256 -39.68799,36.36533 -49.21066,93.51066 -9.52533,57.14533 -3.964,53.79067 -3.68,63.63867 0.284,9.84933 -1.084,16.884 -4.54667,19.69866 -3.46266,2.81334 -4.76266,3.896 -9.74,4.11334 -4.9792,0.216 -12.55466,-2.38134 -11.9052,9.09066 0.64894,11.47347 5.62814,10.38907 5.62814,10.38907 0,0 -6.2776,11.4724 15.58506,17.53333 -2.38133,3.2484 -5.412,15.8016 13.42,15.8016 18.832,0 39.396,-20.56253 39.396,-43.29226 0,-22.72774 2.59733,-58.87574 2.59733,-58.87574 l 56.584,-106.16666"
       style="fill:#000000;fill-opacity:1;fill-rule:nonzero;stroke:none;stroke-width:0.133333" />
  </g>
</svg>
